<?xml version="1.0" encoding="UTF-8"?>
<svg width="50px" height="50px" viewBox="0 0 50 50" version="1.1" xmlns="http://www.w3.org/2000/svg" xmlns:xlink="http://www.w3.org/1999/xlink">
    <!-- Generator: Sketch 61.2 (89653) - https://sketch.com -->
    <title>Group 8</title>
    <desc>Created with Sketch.</desc>
    <g id="Page-1" stroke="none" stroke-width="1" fill="none" fill-rule="evenodd">
        <g id="Docusaurus-Landing-Page" transform="translate(-175.000000, -1477.000000)">
            <g id="Group-8" transform="translate(175.000000, 1477.000000)">
                <rect id="Rectangle-Copy-18" fill="#FFFFFF" x="0" y="0" width="50" height="50" rx="10"></rect>
                <g id="Group-4" transform="translate(13.000000, 12.000000)" fill="#3570E4">
                    <path d="M7.59652174,0 L20.3190584,0 C20.5525094,-6.79621183e-16 20.7747216,0.100243078 20.9292228,0.275253811 L23.7391304,3.45816737 L23.7391304,3.45816737 L23.7391304,19.533913 C23.7391304,19.9834248 23.3747292,20.3478261 22.9252174,20.3478261 L7.59652174,20.3478261 C7.14700998,20.3478261 6.7826087,19.9834248 6.7826087,19.533913 L6.7826087,0.813913043 C6.7826087,0.364401282 7.14700998,-3.61515239e-16 7.59652174,0 Z" id="Rectangle"></path>
                    <path d="M7.59652174,0 L20.3190584,0 C20.5525094,-6.79621183e-16 20.7747216,0.100243078 20.9292228,0.275253811 L23.7391304,3.45816737 L23.7391304,3.45816737 L23.7391304,19.533913 C23.7391304,19.9834248 23.3747292,20.3478261 22.9252174,20.3478261 L7.59652174,20.3478261 C7.14700998,20.3478261 6.7826087,19.9834248 6.7826087,19.533913 L6.7826087,0.813913043 C6.7826087,0.364401282 7.14700998,-3.61515239e-16 7.59652174,0 Z" id="Rectangle"></path>
                    <path d="M0.813913043,5.65217391 L13.5364497,5.65217391 C13.7699007,5.65217391 13.9921129,5.75241699 14.1466141,5.92742772 L16.9565217,9.11034129 L16.9565217,9.11034129 L16.9565217,25.186087 C16.9565217,25.6355987 16.5921205,26 16.1426087,26 L0.813913043,26 C0.364401282,26 -2.78017593e-16,25.6355987 0,25.186087 L0,6.46608696 C-1.66071616e-16,6.01657519 0.364401282,5.65217391 0.813913043,5.65217391 Z" id="Rectangle" opacity="0.59077381"></path>
                </g>
            </g>
        </g>
    </g>
</svg>